<svg width="613.9374877929687px" height="122.021240234375px" xmlns="http://www.w3.org/2000/svg" viewBox="-56.96874389648434 13.9893798828125 613.9374877929687 122.021240234375" style="background: rgba(0, 0, 0, 0);" preserveAspectRatio="xMidYMid"><defs><filter id="editing-extrude-glow"><feFlood flood-color="#333333" result="flood-1"></feFlood><feMorphology operator="erode" radius="1" in="SourceAlpha" result="erode"></feMorphology><feComposite operator="in" in="flood-1" in2="erode" result="comp1"></feComposite><feConvolveMatrix order="3,3" divisor="1" in="comp1" result="convolve" kernelMatrix="0 0 0 1 1 1 0 0 0"></feConvolveMatrix><feOffset dx="-3" dy="0" in="convolve" result="extrude"></feOffset><feComposite operator="in" in="flood-1" in2="extrude" result="comp-extrude"></feComposite><feFlood flood-color="#000000" result="flood-2"></feFlood><feComposite operator="in" in="flood-2" in2="SourceAlpha" result="comp2"></feComposite><feMorphology operator="dilate" radius="1" in="comp2" result="dilate"></feMorphology><feOffset dx="-4.5" dy="0" in="dilate" result="offset"></feOffset><feGaussianBlur in="offset" stdDeviation="5.8" result="blur"></feGaussianBlur><feComponentTransfer in="blur" result="shadow"><feFuncA type="linear" slope="0.8" intercept="-0.2"></feFuncA></feComponentTransfer><feMerge><feMergeNode in="shadow"></feMergeNode><feMergeNode in="comp-extrude"></feMergeNode><feMergeNode in="SourceGraphic"></feMergeNode></feMerge></filter></defs><g filter="url(#editing-extrude-glow)"><g transform="translate(32.52499574422836, 104.75218772888184)"><path d="M27.84-9.86L27.84-9.86L27.84-9.86Q29.06-8.32 29.06-5.34L29.06-5.34L29.06-5.34Q29.06-2.37 26.78-0.54L26.78-0.54L26.78-0.54Q24.51 1.28 20.54 1.28L20.54 1.28L20.54 1.28Q18.24 1.28 14.66 0.77L14.66 0.77L14.66 0.77Q7.62-0.32 5.60-0.32L5.60-0.32L5.60-0.32Q3.58-0.32 2.75-0.22L2.75-0.22L2.75-0.22Q1.92-0.13 0.58 0L0.58 0L8.32-42.24L22.34-42.24L15.94-7.04L15.94-7.04Q16.77-6.91 17.54-6.91L17.54-6.91L19.14-6.91L19.14-6.91Q24.51-6.91 27.84-9.86ZM48.70-3.52L48.70-3.52L48.70-3.52Q46.72 1.28 40.38 1.28L40.38 1.28L40.38 1.28Q37.12 1.28 35.07-0.96L35.07-0.96L35.07-0.96Q33.34-2.94 33.34-4.93L33.34-4.93L33.34-4.93Q33.34-10.11 35.71-20.22L35.71-20.22L38.08-32.64L51.07-33.92L47.17-13.70L47.17-13.70Q46.08-8.96 46.08-7.30L46.08-7.30L46.08-7.30Q46.08-3.65 48.70-3.52ZM39.23-41.54L39.23-41.54L39.23-41.54Q39.23-44.03 41.31-45.38L41.31-45.38L41.31-45.38Q43.39-46.72 46.40-46.72L46.40-46.72L46.40-46.72Q49.41-46.72 51.23-45.38L51.23-45.38L51.23-45.38Q53.06-44.03 53.06-41.54L53.06-41.54L53.06-41.54Q53.06-39.04 51.04-37.76L51.04-37.76L51.04-37.76Q49.02-36.48 46.02-36.48L46.02-36.48L46.02-36.48Q43.01-36.48 41.12-37.76L41.12-37.76L41.12-37.76Q39.23-39.04 39.23-41.54ZM81.22 1.28L81.22 1.28L81.22 1.28Q73.47 1.28 73.47-4.74L73.47-4.74L73.47-4.74Q73.54-6.40 74.05-9.22L74.05-9.22L75.20-15.10L75.20-15.10Q76.93-23.42 76.93-25.28L76.93-25.28L76.93-25.28Q76.93-28.99 74.75-28.99L74.75-28.99L74.75-28.99Q71.10-28.99 69.18-19.46L69.18-19.46L65.41 0L52.54 1.28L59.20-32.70L69.70-33.92L68.67-27.65L68.67-27.65Q71.68-33.92 80.90-33.92L80.90-33.92L80.90-33.92Q85.38-33.92 87.26-32.03L87.26-32.03L87.26-32.03Q89.15-30.14 89.15-25.92L89.15-25.92L89.15-25.92Q89.15-21.95 87.10-12.67L87.10-12.67L87.10-12.67Q86.14-8.51 86.14-6.94L86.14-6.94L86.14-6.94Q86.14-5.38 87.01-4.48L87.01-4.48L87.01-4.48Q87.87-3.58 89.15-3.46L89.15-3.46L89.15-3.46Q88.51-1.28 86.30 0L86.30 0L86.30 0Q84.10 1.28 81.22 1.28ZM98.82-26.75L98.82-26.75L98.82-26.75Q100.99-29.82 104.29-31.87L104.29-31.87L104.29-31.87Q107.58-33.92 111.62-33.92L111.62-33.92L111.62-33.92Q115.65-33.92 117.57-32.64L117.57-32.64L130.11-33.92L125.76-9.34L125.76-9.34Q123.52 3.20 118.78 8.13L118.78 8.13L118.78 8.13Q114.24 12.80 105.41 12.80L105.41 12.80L105.41 12.80Q98.69 12.80 94.85 10.69L94.85 10.69L94.85 10.69Q91.01 8.58 91.01 5.06L91.01 5.06L91.01 5.06Q91.01 2.43 92.99 0.93L92.99 0.93L92.99 0.93Q94.98-0.58 98.05-0.58L98.05-0.58L98.05-0.58Q100.74-0.58 102.78 0.64L102.78 0.64L102.78 0.64Q104 1.28 104.58 2.18L104.58 2.18L104.58 2.18Q103.10 3.46 103.10 5.57L103.10 5.57L103.10 5.57Q103.10 8.32 105.66 8.32L105.66 8.32L105.66 8.32Q109.95 8.32 112.38-1.79L112.38-1.79L112.38-1.79Q113.09-4.54 113.66-7.30L113.66-7.30L113.66-7.30Q110.78-3.78 104.26-3.78L104.26-3.78L104.26-3.78Q99.71-3.78 97.09-5.95L97.09-5.95L97.09-5.95Q94.46-8.13 94.46-13.25L94.46-13.25L94.46-13.25Q94.46-16.45 95.55-20.06L95.55-20.06L95.55-20.06Q96.64-23.68 98.82-26.75ZM107.14-13.06L107.14-13.06L107.14-13.06Q107.14-8.70 109.38-8.70L109.38-8.70L109.38-8.70Q110.91-8.70 112.38-10.37L112.38-10.37L112.38-10.37Q113.54-11.71 113.98-13.70L113.98-13.70L117.25-30.14L117.25-30.14Q116.93-30.21 116.61-30.34L116.61-30.34L116.61-30.34Q115.97-30.59 115.14-30.59L115.14-30.59L115.14-30.59Q111.23-30.59 108.93-24.19L108.93-24.19L108.93-24.19Q107.14-19.20 107.14-13.06ZM153.15-2.69L153.15-2.69L153.15-2.69Q150.08 1.28 142.46 1.28L142.46 1.28L142.46 1.28Q138.50 1.28 135.62-1.12L135.62-1.12L135.62-1.12Q132.74-3.52 132.74-6.98L132.74-6.98L132.74-6.98Q132.74-8.90 132.93-9.86L132.93-9.86L137.22-32.64L150.21-33.92L145.54-9.22L145.54-9.22Q145.28-7.81 145.28-6.98L145.28-6.98L145.28-6.98Q145.28-3.26 147.52-3.26L147.52-3.26L147.52-3.26Q150.02-3.26 151.81-6.66L151.81-6.66L151.81-6.66Q152.38-7.74 152.64-9.15L152.64-9.15L157.18-32.64L169.79-33.92L165.06-8.96L165.06-8.96Q164.86-8 164.86-6.98L164.86-6.98L164.86-6.98Q164.86-5.95 165.44-4.83L165.44-4.83L165.44-4.83Q166.02-3.71 167.87-3.46L167.87-3.46L167.87-3.46Q167.49-1.92 166.14-0.90L166.14-0.90L166.14-0.90Q163.33 1.28 160.29 1.28L160.29 1.28L160.29 1.28Q157.25 1.28 155.46 0.19L155.46 0.19L155.46 0.19Q153.66-0.90 153.15-2.69ZM175.78-1.92L175.78-1.92L175.78-1.92Q174.27-3.58 173.60-6.21L173.60-6.21L173.60-6.21Q172.93-8.83 172.93-13.12L172.93-13.12L172.93-13.12Q172.93-17.41 174.40-21.31L174.40-21.31L174.40-21.31Q175.87-25.22 178.56-28.03L178.56-28.03L178.56-28.03Q184.06-33.92 193.15-33.92L193.15-33.92L193.15-33.92Q196.42-33.92 198.78-32.83L198.78-32.83L209.73-33.92L204.99-8.96L204.99-8.96Q204.80-8.19 204.80-6.78L204.80-6.78L204.80-6.78Q204.80-5.38 205.66-4.48L205.66-4.48L205.66-4.48Q206.53-3.58 207.81-3.46L207.81-3.46L207.81-3.46Q207.17-1.28 204.83 0L204.83 0L204.83 0Q202.50 1.28 199.87 1.28L199.87 1.28L199.87 1.28Q197.25 1.28 195.49 0.29L195.49 0.29L195.49 0.29Q193.73-0.70 193.22-2.37L193.22-2.37L193.22-2.37Q192.19-0.77 190.02 0.26L190.02 0.26L190.02 0.26Q187.84 1.28 184.93 1.28L184.93 1.28L184.93 1.28Q182.02 1.28 179.65 0.51L179.65 0.51L179.65 0.51Q177.28-0.26 175.78-1.92ZM189.28-27.90L189.28-27.90L189.28-27.90Q188.54-26.75 187.90-24.80L187.90-24.80L187.90-24.80Q187.26-22.85 186.21-17.63L186.21-17.63L186.21-17.63Q185.15-12.42 185.15-8.70L185.15-8.70L185.15-8.70Q185.15-4.99 185.73-3.90L185.73-3.90L185.73-3.90Q186.30-2.82 187.33-2.82L187.33-2.82L187.33-2.82Q189.38-2.82 190.88-4.77L190.88-4.77L190.88-4.77Q192.38-6.72 192.96-10.18L192.96-10.18L196.35-28.93L196.35-28.93Q195.01-30.08 193.44-30.08L193.44-30.08L193.44-30.08Q191.87-30.08 190.94-29.57L190.94-29.57L190.94-29.57Q190.02-29.06 189.28-27.90ZM251.33-37.12L251.33-37.12L251.33-37.12Q252.22-38.66 252.22-40.32L252.22-40.32L252.22-40.32Q252.22-43.26 250.43-43.26L250.43-43.26L250.43-43.26Q247.68-43.26 246.53-37.63L246.53-37.63L245.57-32.64L251.39-32.64L251.01-29.76L244.99-29.76L239.23 0L226.30 1.28L232.45-29.76L227.90-29.76L228.48-32.64L232.96-32.64L234.30-37.70L234.30-37.70Q235.46-42.37 240.38-44.54L240.38-44.54L240.38-44.54Q243.97-46.08 249.98-46.08L249.98-46.08L249.98-46.08Q256.00-46.08 258.69-44.54L258.69-44.54L258.69-44.54Q261.38-43.01 261.38-40.96L261.38-40.96L261.38-40.96Q261.38-38.91 259.78-37.63L259.78-37.63L259.78-37.63Q258.18-36.35 256.38-36.35L256.38-36.35L256.38-36.35Q252.86-36.35 251.33-37.12ZM270.85-17.98L270.85-17.98L270.85-17.98Q273.15-22.08 273.15-26.24L273.15-26.24L273.15-26.24Q273.15-28.99 271.17-28.99L271.17-28.99L271.17-28.99Q269.63-28.99 268.03-26.37L268.03-26.37L268.03-26.37Q266.37-23.74 265.86-20.35L265.86-20.35L262.53 0L249.28 1.28L255.81-32.64L266.37-33.92L265.22-27.46L265.22-27.46Q268.35-33.92 275.39-33.92L275.39-33.92L275.39-33.92Q279.10-33.92 281.12-32L281.12-32L281.12-32Q283.14-30.08 283.14-26.14L283.14-26.14L283.14-26.14Q283.14-22.21 280.54-19.71L280.54-19.71L280.54-19.71Q277.95-17.22 273.54-17.22L273.54-17.22L273.54-17.22Q271.62-17.22 270.85-17.98ZM286.94-1.92L286.94-1.92L286.94-1.92Q285.44-3.58 284.77-6.21L284.77-6.21L284.77-6.21Q284.10-8.83 284.10-13.12L284.10-13.12L284.10-13.12Q284.10-17.41 285.57-21.31L285.57-21.31L285.57-21.31Q287.04-25.22 289.73-28.03L289.73-28.03L289.73-28.03Q295.23-33.92 304.32-33.92L304.32-33.92L304.32-33.92Q307.58-33.92 309.95-32.83L309.95-32.83L320.90-33.92L316.16-8.96L316.16-8.96Q315.97-8.19 315.97-6.78L315.97-6.78L315.97-6.78Q315.97-5.38 316.83-4.48L316.83-4.48L316.83-4.48Q317.70-3.58 318.98-3.46L318.98-3.46L318.98-3.46Q318.34-1.28 316 0L316 0L316 0Q313.66 1.28 311.04 1.28L311.04 1.28L311.04 1.28Q308.42 1.28 306.66 0.29L306.66 0.29L306.66 0.29Q304.90-0.70 304.38-2.37L304.38-2.37L304.38-2.37Q303.36-0.77 301.18 0.26L301.18 0.26L301.18 0.26Q299.01 1.28 296.10 1.28L296.10 1.28L296.10 1.28Q293.18 1.28 290.82 0.51L290.82 0.51L290.82 0.51Q288.45-0.26 286.94-1.92ZM300.45-27.90L300.45-27.90L300.45-27.90Q299.71-26.75 299.07-24.80L299.07-24.80L299.07-24.80Q298.43-22.85 297.38-17.63L297.38-17.63L297.38-17.63Q296.32-12.42 296.32-8.70L296.32-8.70L296.32-8.70Q296.32-4.99 296.90-3.90L296.90-3.90L296.90-3.90Q297.47-2.82 298.50-2.82L298.50-2.82L298.50-2.82Q300.54-2.82 302.05-4.77L302.05-4.77L302.05-4.77Q303.55-6.72 304.13-10.18L304.13-10.18L307.52-28.93L307.52-28.93Q306.18-30.08 304.61-30.08L304.61-30.08L304.61-30.08Q303.04-30.08 302.11-29.57L302.11-29.57L302.11-29.57Q301.18-29.06 300.45-27.90ZM351.42 1.28L351.42 1.28L351.42 1.28Q343.68 1.28 343.68-4.74L343.68-4.74L343.68-4.74Q343.74-6.40 344.26-9.22L344.26-9.22L345.41-15.10L345.41-15.10Q347.14-23.42 347.14-25.28L347.14-25.28L347.14-25.28Q347.14-28.99 344.96-28.99L344.96-28.99L344.96-28.99Q341.31-28.99 339.39-19.46L339.39-19.46L335.62 0L322.75 1.28L329.41-32.70L339.90-33.92L338.88-27.65L338.88-27.65Q341.89-33.92 351.10-33.92L351.10-33.92L351.10-33.92Q355.58-33.92 357.47-32.03L357.47-32.03L357.47-32.03Q359.36-30.14 359.36-25.92L359.36-25.92L359.36-25.92Q359.36-21.95 357.31-12.67L357.31-12.67L357.31-12.67Q356.35-8.51 356.35-6.94L356.35-6.94L356.35-6.94Q356.35-5.38 357.22-4.48L357.22-4.48L357.22-4.48Q358.08-3.58 359.36-3.46L359.36-3.46L359.36-3.46Q358.72-1.28 356.51 0L356.51 0L356.51 0Q354.30 1.28 351.42 1.28ZM395.90-26.62L395.90-26.62L395.90-26.62Q395.90-23.94 393.66-22.27L393.66-22.27L393.66-22.27Q391.42-20.61 387.78-20.61L387.78-20.61L387.78-20.61Q386.24-20.61 385.34-21.06L385.34-21.06L385.34-21.06Q386.05-22.72 386.27-24.80L386.27-24.80L386.27-24.80Q386.50-26.88 386.50-27.46L386.50-27.46L386.50-27.46Q386.50-30.14 384.64-30.14L384.64-30.14L384.64-30.14Q383.36-30.14 381.92-28.54L381.92-28.54L381.92-28.54Q380.48-26.94 379.26-24.45L379.26-24.45L379.26-24.45Q376.58-18.69 376.58-12.86L376.58-12.86L376.58-12.86Q376.58-9.66 377.79-8.22L377.79-8.22L377.79-8.22Q379.01-6.78 381.70-6.78L381.70-6.78L381.70-6.78Q385.41-6.78 388.35-9.86L388.35-9.86L388.35-9.86Q389.18-10.82 389.63-11.90L389.63-11.90L389.63-11.90Q392.06-10.62 392.06-7.10L392.06-7.10L392.06-7.10Q392.06-3.52 388.10-1.15L388.10-1.15L388.10-1.15Q384 1.28 377.47 1.28L377.47 1.28L377.47 1.28Q364.48 1.28 364.48-12.48L364.48-12.48L364.48-12.48Q364.48-22.53 370.18-28.29L370.18-28.29L370.18-28.29Q375.68-33.92 385.79-33.92L385.79-33.92L385.79-33.92Q395.90-33.92 395.90-26.62ZM400.42-1.92L400.42-1.92L400.42-1.92Q398.91-3.58 398.24-6.21L398.24-6.21L398.24-6.21Q397.57-8.83 397.57-13.12L397.57-13.12L397.57-13.12Q397.57-17.41 399.04-21.31L399.04-21.31L399.04-21.31Q400.51-25.22 403.20-28.03L403.20-28.03L403.20-28.03Q408.70-33.92 417.79-33.92L417.79-33.92L417.79-33.92Q421.06-33.92 423.42-32.83L423.42-32.83L434.37-33.92L429.63-8.96L429.63-8.96Q429.44-8.19 429.44-6.78L429.44-6.78L429.44-6.78Q429.44-5.38 430.30-4.48L430.30-4.48L430.30-4.48Q431.17-3.58 432.45-3.46L432.45-3.46L432.45-3.46Q431.81-1.28 429.47 0L429.47 0L429.47 0Q427.14 1.28 424.51 1.28L424.51 1.28L424.51 1.28Q421.89 1.28 420.13 0.29L420.13 0.29L420.13 0.29Q418.37-0.70 417.86-2.37L417.86-2.37L417.86-2.37Q416.83-0.77 414.66 0.26L414.66 0.26L414.66 0.26Q412.48 1.28 409.57 1.28L409.57 1.28L409.57 1.28Q406.66 1.28 404.29 0.51L404.29 0.51L404.29 0.51Q401.92-0.26 400.42-1.92ZM413.92-27.90L413.92-27.90L413.92-27.90Q413.18-26.75 412.54-24.80L412.54-24.80L412.54-24.80Q411.90-22.85 410.85-17.63L410.85-17.63L410.85-17.63Q409.79-12.42 409.79-8.70L409.79-8.70L409.79-8.70Q409.79-4.99 410.37-3.90L410.37-3.90L410.37-3.90Q410.94-2.82 411.97-2.82L411.97-2.82L411.97-2.82Q414.02-2.82 415.52-4.77L415.52-4.77L415.52-4.77Q417.02-6.72 417.60-10.18L417.60-10.18L420.99-28.93L420.99-28.93Q419.65-30.08 418.08-30.08L418.08-30.08L418.08-30.08Q416.51-30.08 415.58-29.57L415.58-29.57L415.58-29.57Q414.66-29.06 413.92-27.90Z" fill="#83a9df"></path></g></g><style>text {
  font-size: 64px;
  font-family: Arial Black;
  dominant-baseline: central;
  text-anchor: middle;
}</style></svg>